<?xml version="1.0" encoding="UTF-8"?>
<svg xmlns="http://www.w3.org/2000/svg" xmlns:xlink="http://www.w3.org/1999/xlink" width="160px" height="56px" viewBox="0 0 160 56" version="1.1">
<g id="surface1">
<path style=" stroke:none;fill-rule:nonzero;fill:rgb(0%,0%,0%);fill-opacity:1;" d="M 5.683594 6.941406 C 5.417969 7.230469 8.078125 10.050781 8.789062 10.222656 C 8.988281 10.269531 10.367188 10.3125 11.875 10.3125 C 14.207031 10.3125 14.628906 10.339844 14.738281 10.542969 C 14.828125 10.6875 14.871094 12.792969 14.871094 15.234375 C 14.871094 17.675781 14.871094 19.824219 14.871094 19.996094 C 14.871094 20.316406 14.960938 20.332031 16.625 20.332031 C 18.023438 20.332031 18.402344 20.289062 18.511719 20.097656 C 18.578125 19.96875 18.644531 17.71875 18.644531 15.089844 L 18.644531 10.3125 L 21.507812 10.3125 C 24.21875 10.3125 24.417969 10.296875 25.015625 9.960938 C 25.636719 9.628906 27.746094 7.320312 27.746094 7 C 27.746094 6.796875 5.882812 6.753906 5.683594 6.941406 Z M 5.683594 6.941406 "/>
<path style=" stroke:none;fill-rule:nonzero;fill:rgb(0%,0%,0%);fill-opacity:1;" d="M 39.511719 7.085938 C 39.511719 7.449219 41.554688 9.65625 42.21875 10.019531 C 42.707031 10.28125 43.128906 10.296875 49.589844 10.3125 L 56.449219 10.3125 L 57.246094 9.730469 C 58.136719 9.078125 59.753906 7.144531 59.578125 6.957031 C 59.511719 6.882812 54.984375 6.824219 49.476562 6.824219 C 39.957031 6.824219 39.511719 6.839844 39.511719 7.085938 Z M 39.511719 7.085938 "/>
<path style=" stroke:none;fill-rule:nonzero;fill:rgb(0%,0%,0%);fill-opacity:1;" d="M 69.699219 10.675781 L 69.699219 14.523438 L 77.226562 14.523438 C 83.882812 14.523438 84.773438 14.550781 84.882812 14.753906 C 85.039062 15.03125 85.0625 16.308594 84.90625 16.585938 C 84.816406 16.730469 83.664062 16.757812 79.046875 16.730469 L 73.296875 16.6875 L 72.429688 17.269531 C 71.5 17.90625 69.613281 20.085938 69.855469 20.230469 C 69.921875 20.289062 74.160156 20.332031 79.265625 20.332031 C 87.503906 20.332031 88.546875 20.304688 88.65625 20.097656 C 88.835938 19.808594 88.835938 11.558594 88.65625 11.269531 C 88.546875 11.066406 87.65625 11.039062 80.976562 11.039062 L 73.453125 11.039062 L 73.519531 10.703125 L 73.585938 10.382812 L 79.46875 10.3125 C 82.707031 10.269531 85.371094 10.210938 85.394531 10.195312 C 86.859375 8.988281 88.433594 7.1875 88.234375 6.972656 C 88.148438 6.882812 84.75 6.824219 78.890625 6.824219 L 69.699219 6.824219 Z M 69.699219 10.675781 "/>
<path style=" stroke:none;fill-rule:nonzero;fill:rgb(0%,0%,0%);fill-opacity:1;" d="M 100.222656 7 C 100.15625 7.101562 100.132812 10.121094 100.15625 13.722656 L 100.222656 20.257812 L 107.304688 20.304688 L 114.382812 20.332031 L 115.292969 19.707031 C 116.316406 18.996094 117.980469 17.078125 117.757812 16.847656 C 117.667969 16.746094 115.292969 16.703125 110.808594 16.703125 L 103.996094 16.714844 L 103.882812 11.808594 L 103.773438 6.898438 L 102.042969 6.855469 C 100.800781 6.824219 100.289062 6.871094 100.222656 7 Z M 100.222656 7 "/>
<path style=" stroke:none;fill-rule:nonzero;fill:rgb(0%,0%,0%);fill-opacity:1;" d="M 128.636719 6.972656 C 128.433594 7.1875 130.054688 9.121094 130.988281 9.757812 L 131.785156 10.3125 L 143.796875 10.3125 L 144.660156 9.671875 C 145.460938 9.078125 146.949219 7.335938 146.949219 6.984375 C 146.949219 6.769531 128.835938 6.753906 128.636719 6.972656 Z M 128.636719 6.972656 "/>
<path style=" stroke:none;fill-rule:nonzero;fill:rgb(0%,0%,0%);fill-opacity:1;" d="M 39.511719 12.023438 C 39.511719 12.375 41.175781 14.203125 42.019531 14.769531 L 42.707031 15.25 L 56.425781 15.25 L 57.269531 14.667969 C 58.203125 14.015625 59.800781 12.125 59.601562 11.910156 C 59.511719 11.820312 55.871094 11.761719 49.476562 11.761719 C 40.109375 11.761719 39.511719 11.777344 39.511719 12.023438 Z M 39.511719 12.023438 "/>
<path style=" stroke:none;fill-rule:nonzero;fill:rgb(0%,0%,0%);fill-opacity:1;" d="M 128.902344 12.011719 C 128.8125 12.054688 128.746094 13.957031 128.746094 16.222656 L 128.746094 20.347656 L 130.589844 20.304688 L 132.410156 20.257812 L 132.628906 14.59375 L 137.78125 14.550781 L 142.953125 14.523438 L 142.996094 17.382812 L 143.0625 20.257812 L 144.90625 20.304688 L 146.726562 20.347656 L 146.726562 11.910156 L 137.890625 11.910156 C 133.03125 11.910156 128.96875 11.953125 128.902344 12.011719 Z M 128.902344 12.011719 "/>
<path style=" stroke:none;fill-rule:nonzero;fill:rgb(0%,0%,0%);fill-opacity:1;" d="M 39.511719 16.949219 C 39.511719 17.355469 41.222656 19.273438 42.085938 19.824219 L 42.863281 20.332031 L 56.09375 20.332031 L 56.871094 19.851562 C 58.070312 19.113281 59.867188 17.121094 59.601562 16.847656 C 59.511719 16.757812 55.671875 16.703125 49.476562 16.703125 C 40.132812 16.703125 39.511719 16.714844 39.511719 16.949219 Z M 39.511719 16.949219 "/>
</g>
</svg>
